<svg id="Layer_1" height="512" viewBox="0 0 512 512" width="512" xmlns="http://www.w3.org/2000/svg" fill="#FFFFFF" data-name="Layer 1"><path d="m233.209 357.64c8.668-.369 16.325-7.914 21.611-21.379 4.727-12.036 7.329-27.912 7.329-44.7s-2.6-32.666-7.329-44.7c-5.362-13.657-13.16-21.233-21.982-21.4v-.009c-36.607-1.793-61.894-12.465-75.159-31.718-18.692-27.131-7.283-63.081-7.166-63.44 6.141-17.957-16.962-45.524-44.013-63.894-29.36-19.945-67.121-31.737-79.28-14.316a16.8 16.8 0 0 0 -1.752 3.22c-8.036 18.356-15.468 41.76-15.468 88.296 0 57.733 20.726 112.034 58.357 152.9 37.76 41 88 63.586 141.473 63.586a124.658 124.658 0 0 0 17.87-1.686c1.845-.263 3.681-.527 5.509-.76zm-.664-120.2c7.178 0 17.6 21.082 17.6 54.119s-10.426 54.117-17.6 54.117-17.6-21.082-17.6-54.117 10.422-54.119 17.6-54.119zm-84.809-36.993c13.314 19.391 36.21 31.3 68.167 35.527a53.934 53.934 0 0 0 -5.634 10.881 112.494 112.494 0 0 0 -6.636 29.937c-32.459-5.2-61.683-25.411-80.875-56.2-16.758-26.892-23.125-58.25-16.98-81.841 8.338 2.773 16.111 4.272 22.74 4.272a35.9 35.9 0 0 0 6.752-.595c.173-.033.334-.082.5-.118-1.947 14.99-1.77 38.124 11.966 58.137zm-35.162 26.493c21.289 34.152 54 56.456 90.393 61.884-.015.909-.027 1.82-.027 2.735a151.585 151.585 0 0 0 1.621 22.359c-38.15-3.825-73.528-22.339-100.3-52.669-28.744-32.559-44.573-75.371-44.573-120.549 0-10.049.367-18.709 1.136-26.529q4.01 3.084 8.325 6.019a163.849 163.849 0 0 0 25.368 14.176c-7.668 27.163-.985 62.026 18.057 92.574zm-75.513-167.989c1.539-2.209 5.192-3.351 10.215-3.351a50 50 0 0 1 10.694 1.322c12.693 2.83 27.534 9.72 41.786 19.4 30.758 20.892 43.511 44.389 38.778 51.387-.966 1.428-2.827 2.415-5.531 2.936-14.489 2.783-39.768-8.611-57.117-20.381-24.679-16.743-37.66-34.7-39.577-45.079-.5-2.705-.247-4.802.752-6.234zm172.769 289.136c-103.57 0-187.83-91.733-187.83-204.487 0-22.913 1.417-43.254 7.3-63.68 4.45 8.064 11.556 16.7 20.547 25.01a252.642 252.642 0 0 0 -2.159 35.77c0 48.1 16.895 93.734 47.575 128.488 29.654 33.592 69.2 53.712 111.772 56.991a88.607 88.607 0 0 0 3.234 10.08 52.785 52.785 0 0 0 6.068 11.491c-2.179.206-4.337.337-6.507.337z"/><path d="m486.609 176.177c-.819-1.742-1.633-3.476-2.416-5.212-2.947-8.386-12.684-13.636-27.561-14.8-13.341-1.037-29.859 1.172-46.5 6.226-26.21 7.96-47.654 21.56-54.633 34.646-3.222 6.045-2.9 10.937-2 14.053 9.178 36.427 6.2 64.483-8.857 83.387-21.677 27.22-61.957 26.668-62.347 26.669v.03a21.926 21.926 0 0 0 -9.362 2.348c-14.654 7.146-30.065 30.886-39.262 60.482-10.865 34.961-11.205 75.733 9.565 82.431a17.2 17.2 0 0 0 3.663.744v.012a174.215 174.215 0 0 0 20.524 1.26c17.433 0 39.548-2.821 71.721-12.592a239.286 239.286 0 0 0 82.515-43.832 223.607 223.607 0 0 0 56.135-68.007c25.372-47.579 31.01-101.1 15.875-150.713a128.127 128.127 0 0 0 -7.06-17.132zm-120.521 26.512c6.284-11.785 29.044-23.2 47.532-28.811 32.934-10 57.136-5.964 59.323 1.213.413 1.351.062 3.088-1.043 5.158-6.284 11.784-29.044 23.195-47.531 28.81-32.933 10-57.134 5.963-59.322-1.212-.414-1.353-.064-3.088 1.041-5.158zm-12.126 99.35c15.137-18.95 20.012-45.03 14.576-77.666a55.315 55.315 0 0 0 12.818 2.4q3.234.251 6.7.251a127.126 127.126 0 0 0 25.187-2.772c4.7 33.644-6.484 68.668-31.18 96.977-21.8 24.99-51.322 40.912-76.842 41.847a97.181 97.181 0 0 0 -.238-9.918c-.695-8.85-2.716-16.1-5.872-21.467 15.768-2.617 39.015-9.828 54.851-29.652zm-56.053 102.561a166.812 166.812 0 0 0 6.432-29.51c29.391-.529 62.125-17.738 86.765-45.982 27.3-31.294 39.465-70.268 33.842-107.739.969-.275 1.937-.537 2.907-.832a155.757 155.757 0 0 0 21.941-8.478c7.809 38.992.105 79.7-22.013 115.437-23.687 38.275-61.466 66.866-106.375 80.506-10.142 3.081-18.977 5.356-27.083 6.959q1.92-5.037 3.584-10.361zm-44.365 49.255c-2.6 1.351-4.835 1.741-6.628 1.163-8.635-2.785-13.493-29.793-1.79-67.451 8.009-25.768 21.6-47.668 33.062-53.256a9.988 9.988 0 0 1 4.294-1.16 5.319 5.319 0 0 1 1.9.332c4.465 1.691 7.777 9.587 8.643 20.607 1.048 13.324-1.285 29.994-6.568 46.937-9.194 29.473-23.157 47.773-32.913 52.832zm213.656-115.474c-26.71 50.087-74.658 88.723-131.55 106-22.937 6.966-43.719 11.716-65.987 12 6.785-6.85 13.344-16.621 18.976-28.23a262.376 262.376 0 0 0 36.257-8.662c47.7-14.489 87.866-44.915 113.09-85.673 24.414-39.45 32.449-84.616 22.814-127.696 8.2-5 14.75-10.487 18.937-16 .919 2.212 1.754 4.427 2.444 6.692 14.204 46.545 8.883 96.821-14.981 141.569z"/></svg>