<svg height="512" viewBox="0 0 64 64" width="512" xmlns="http://www.w3.org/2000/svg" fill="#FFFFFF"><g id="Layer_26"><g><path d="m26.877 53.618c0-1.21-.588-1.789-1.331-2.521-.807-.794-1.811-1.781-1.811-3.663s1.005-2.87 1.811-3.663c.744-.731 1.331-1.308 1.331-2.518 0-1.207-.587-1.784-1.331-2.515-.806-.793-1.811-1.779-1.811-3.66s1.005-2.867 1.811-3.661c.744-.731 1.331-1.308 1.331-2.517 0-1.207-.588-1.785-1.331-2.516-.806-.794-1.811-1.78-1.811-3.661s1.005-2.866 1.811-3.66c.744-.731 1.331-1.308 1.331-2.516s-.588-1.786-1.331-2.517c-.807-.794-1.811-1.78-1.811-3.66s1.005-2.866 1.811-3.659c.556-.545 1.026-1.007 1.226-1.711h-4.257c-.238 1.371-1.055 2.187-1.738 2.857-.744.731-1.331 1.307-1.331 2.515s.588 1.785 1.331 2.516c.807.794 1.812 1.78 1.812 3.661s-1.005 2.867-1.812 3.66c-.744.731-1.331 1.308-1.331 2.516s.588 1.786 1.331 2.517c.807.794 1.812 1.78 1.812 3.66 0 1.881-1.005 2.867-1.812 3.661-.744.731-1.331 1.308-1.331 2.517 0 1.207.588 1.785 1.331 2.516.807.793 1.812 1.779 1.812 3.659 0 1.881-1.005 2.869-1.811 3.662-.745.731-1.332 1.309-1.332 2.519s.588 1.788 1.332 2.521c.806.794 1.811 1.781 1.811 3.663s-1.005 2.87-1.811 3.663c-.558.548-1.028 1.01-1.228 1.717h4.259c.237-1.373 1.054-2.19 1.737-2.861.743-.732 1.331-1.311 1.331-2.521z"/><path d="m15.093 53.618c0-1.21-.588-1.789-1.331-2.521-.807-.794-1.811-1.781-1.811-3.663s1.005-2.87 1.811-3.663c.744-.731 1.331-1.308 1.331-2.518 0-1.207-.587-1.784-1.331-2.515-.806-.793-1.811-1.779-1.811-3.66s1.005-2.867 1.811-3.661c.744-.731 1.331-1.308 1.331-2.517 0-1.207-.588-1.785-1.331-2.516-.806-.794-1.811-1.78-1.811-3.661s1.005-2.866 1.811-3.66c.744-.731 1.331-1.308 1.331-2.516s-.588-1.786-1.331-2.517c-.807-.794-1.811-1.78-1.811-3.66s1.005-2.866 1.811-3.659c.556-.545 1.025-1.007 1.226-1.711h-3.704c-.237 1.375-1.062 2.186-1.745 2.857-.744.73-1.331 1.307-1.331 2.515s.588 1.785 1.331 2.516c.806.794 1.811 1.78 1.811 3.661s-1.005 2.866-1.811 3.66c-.744.731-1.331 1.308-1.331 2.516s.588 1.786 1.331 2.517c.807.794 1.811 1.78 1.811 3.66 0 1.881-1.005 2.867-1.811 3.661-.744.731-1.331 1.308-1.331 2.517s.588 1.785 1.331 2.516c.807.793 1.811 1.779 1.811 3.659 0 1.881-1.004 2.869-1.811 3.661-.744.732-1.331 1.311-1.331 2.52 0 1.21.588 1.789 1.331 2.521.807.794 1.811 1.781 1.811 3.663s-1.004 2.87-1.811 3.663c-.557.547-1.027 1.01-1.228 1.717h3.713c.237-1.373 1.054-2.19 1.737-2.861.744-.732 1.332-1.311 1.332-2.521z"/><path d="m20.985 53.618c0-1.21-.588-1.788-1.332-2.521-.806-.794-1.811-1.781-1.811-3.663s1.005-2.87 1.812-3.663c.744-.731 1.331-1.309 1.331-2.518 0-1.207-.588-1.784-1.331-2.515-.807-.793-1.812-1.779-1.812-3.66s1.005-2.867 1.812-3.661c.744-.731 1.331-1.308 1.331-2.517 0-1.207-.588-1.785-1.331-2.516-.807-.794-1.812-1.78-1.812-3.661s1.005-2.867 1.812-3.66c.744-.731 1.331-1.308 1.331-2.516s-.588-1.786-1.331-2.517c-.807-.794-1.812-1.78-1.812-3.66s1.005-2.866 1.812-3.659c.557-.546 1.026-1.007 1.227-1.711h-4.258c-.238 1.371-1.055 2.187-1.737 2.857-.744.73-1.331 1.307-1.331 2.515s.588 1.785 1.331 2.516c.806.794 1.811 1.78 1.811 3.661s-1.005 2.866-1.811 3.66c-.744.731-1.331 1.308-1.331 2.516s.588 1.786 1.331 2.517c.807.794 1.811 1.78 1.811 3.66 0 1.881-1.005 2.867-1.811 3.661-.744.731-1.331 1.308-1.331 2.517s.588 1.785 1.331 2.516c.807.793 1.811 1.779 1.811 3.659 0 1.881-1.004 2.869-1.811 3.661-.744.732-1.331 1.311-1.331 2.52 0 1.21.588 1.789 1.331 2.521.807.794 1.811 1.781 1.811 3.663s-1.004 2.87-1.811 3.663c-.557.549-1.027 1.011-1.228 1.719h4.258c.238-1.373 1.055-2.19 1.737-2.862.744-.734 1.332-1.312 1.332-2.522z"/><path d="m32.77 53.618c0-1.21-.588-1.788-1.332-2.521-.806-.794-1.811-1.781-1.811-3.663s1.005-2.87 1.812-3.663c.744-.731 1.331-1.309 1.331-2.518 0-1.207-.588-1.784-1.331-2.515-.807-.793-1.812-1.779-1.812-3.66s1.005-2.867 1.812-3.661c.744-.731 1.331-1.308 1.331-2.517 0-1.207-.588-1.785-1.331-2.516-.807-.794-1.812-1.78-1.812-3.661s1.005-2.867 1.812-3.66c.744-.731 1.331-1.308 1.331-2.516s-.588-1.786-1.331-2.517c-.807-.794-1.812-1.78-1.812-3.66s1.005-2.866 1.812-3.659c.556-.546 1.025-1.007 1.226-1.711h-4.258c-.238 1.371-1.055 2.187-1.737 2.857-.744.73-1.331 1.307-1.331 2.515s.588 1.785 1.331 2.516c.806.794 1.811 1.78 1.811 3.661s-1.005 2.866-1.811 3.66c-.744.731-1.331 1.308-1.331 2.516s.588 1.786 1.331 2.517c.807.794 1.811 1.78 1.811 3.66 0 1.881-1.005 2.867-1.811 3.661-.744.731-1.331 1.308-1.331 2.517s.588 1.785 1.331 2.516c.807.793 1.811 1.779 1.811 3.659 0 1.881-1.004 2.869-1.811 3.661-.744.732-1.331 1.311-1.331 2.52 0 1.21.588 1.789 1.331 2.521.807.794 1.811 1.781 1.811 3.663s-1.004 2.87-1.811 3.663c-.557.549-1.027 1.011-1.228 1.719h4.258c.238-1.373 1.055-2.19 1.737-2.862.745-.734 1.333-1.312 1.333-2.522z"/><path d="m44.554 53.618c0-1.21-.588-1.788-1.332-2.521-.806-.794-1.811-1.781-1.811-3.663s1.005-2.87 1.812-3.663c.744-.731 1.331-1.309 1.331-2.518 0-1.207-.588-1.784-1.331-2.515-.807-.793-1.812-1.779-1.812-3.66s1.005-2.867 1.812-3.661c.744-.731 1.331-1.308 1.331-2.517 0-1.207-.588-1.785-1.331-2.516-.807-.794-1.812-1.78-1.812-3.661s1.005-2.867 1.812-3.66c.744-.731 1.331-1.308 1.331-2.516s-.588-1.786-1.331-2.517c-.807-.794-1.812-1.78-1.812-3.66s1.005-2.866 1.812-3.659c.556-.546 1.026-1.007 1.226-1.711h-4.258c-.238 1.371-1.055 2.187-1.737 2.857-.744.73-1.331 1.307-1.331 2.515s.588 1.785 1.331 2.516c.806.794 1.811 1.78 1.811 3.661s-1.005 2.866-1.811 3.66c-.744.731-1.331 1.308-1.331 2.516s.588 1.786 1.331 2.517c.807.794 1.811 1.78 1.811 3.66 0 1.881-1.005 2.867-1.811 3.661-.744.731-1.331 1.308-1.331 2.517s.588 1.785 1.331 2.516c.807.793 1.811 1.779 1.811 3.659 0 1.881-1.004 2.869-1.811 3.661-.744.732-1.331 1.311-1.331 2.52 0 1.21.588 1.789 1.331 2.521.807.794 1.811 1.781 1.811 3.663s-1.004 2.87-1.811 3.663c-.557.549-1.027 1.011-1.228 1.719h4.258c.238-1.373 1.055-2.19 1.737-2.862.745-.734 1.333-1.312 1.333-2.522z"/><path d="m38.661 53.618c0-1.21-.588-1.789-1.331-2.521-.807-.794-1.811-1.781-1.811-3.663s1.005-2.87 1.811-3.663c.744-.731 1.331-1.308 1.331-2.518 0-1.207-.587-1.784-1.331-2.515-.806-.793-1.811-1.779-1.811-3.66s1.005-2.867 1.811-3.661c.744-.731 1.331-1.308 1.331-2.517 0-1.207-.588-1.785-1.331-2.516-.806-.794-1.811-1.78-1.811-3.661s1.005-2.866 1.811-3.66c.744-.731 1.331-1.308 1.331-2.516s-.588-1.786-1.331-2.517c-.807-.794-1.811-1.78-1.811-3.66s1.005-2.866 1.811-3.659c.557-.545 1.026-1.007 1.227-1.711h-4.257c-.238 1.371-1.055 2.187-1.738 2.857-.744.731-1.331 1.307-1.331 2.515s.588 1.785 1.331 2.516c.807.794 1.812 1.78 1.812 3.661s-1.005 2.867-1.812 3.66c-.744.731-1.331 1.308-1.331 2.516s.588 1.786 1.331 2.517c.807.794 1.812 1.78 1.812 3.66 0 1.881-1.005 2.867-1.812 3.661-.744.731-1.331 1.308-1.331 2.517 0 1.207.588 1.785 1.331 2.516.807.793 1.812 1.779 1.812 3.659 0 1.881-1.005 2.869-1.811 3.662-.745.731-1.332 1.309-1.332 2.519s.588 1.788 1.332 2.521c.806.794 1.811 1.781 1.811 3.663s-1.005 2.87-1.811 3.663c-.558.55-1.028 1.012-1.229 1.719h4.259c.237-1.373 1.054-2.19 1.737-2.861.743-.734 1.331-1.313 1.331-2.523z"/><path d="m54.461 31.417c.744-.731 1.331-1.308 1.331-2.517 0-1.207-.588-1.785-1.331-2.516-.806-.794-1.811-1.78-1.811-3.661s1.005-2.866 1.811-3.66c.744-.731 1.331-1.308 1.331-2.516s-.588-1.786-1.331-2.517c-.807-.794-1.811-1.78-1.811-3.66s1.005-2.866 1.811-3.659c.557-.546 1.026-1.007 1.227-1.711h-3.712c-.238 1.371-1.055 2.187-1.737 2.857-.744.73-1.331 1.307-1.331 2.515s.588 1.785 1.331 2.516c.806.794 1.811 1.78 1.811 3.661s-1.005 2.866-1.811 3.66c-.744.731-1.331 1.308-1.331 2.516s.588 1.786 1.331 2.517c.807.794 1.811 1.78 1.811 3.66 0 1.881-1.005 2.867-1.811 3.661-.744.731-1.331 1.308-1.331 2.517s.588 1.785 1.331 2.516c.807.793 1.811 1.779 1.811 3.659 0 1.881-1.004 2.869-1.811 3.661-.744.732-1.331 1.311-1.331 2.52 0 1.21.588 1.789 1.331 2.521.807.794 1.811 1.781 1.811 3.663s-1.004 2.87-1.811 3.663c-.557.549-1.027 1.011-1.228 1.719h3.705c.236-1.377 1.061-2.189 1.745-2.861.744-.732 1.331-1.311 1.331-2.521s-.588-1.789-1.331-2.521c-.807-.794-1.811-1.781-1.811-3.663s1.005-2.87 1.811-3.663c.744-.731 1.331-1.308 1.331-2.518 0-1.207-.587-1.784-1.331-2.515-.806-.793-1.811-1.779-1.811-3.66s1.005-2.869 1.811-3.663z"/><path d="m50.446 53.618c0-1.21-.588-1.789-1.331-2.521-.807-.794-1.811-1.781-1.811-3.663s1.005-2.87 1.811-3.663c.744-.731 1.331-1.308 1.331-2.518 0-1.207-.587-1.784-1.331-2.515-.806-.793-1.811-1.779-1.811-3.66s1.005-2.867 1.811-3.661c.744-.731 1.331-1.308 1.331-2.517 0-1.207-.588-1.785-1.331-2.516-.806-.794-1.811-1.78-1.811-3.661s1.005-2.866 1.811-3.66c.744-.731 1.331-1.308 1.331-2.516s-.588-1.786-1.331-2.517c-.807-.794-1.811-1.78-1.811-3.66s1.005-2.866 1.811-3.659c.556-.545 1.025-1.007 1.226-1.711h-4.257c-.238 1.371-1.055 2.187-1.738 2.857-.743.731-1.331 1.307-1.331 2.515s.588 1.785 1.331 2.516c.807.794 1.812 1.78 1.812 3.661s-1.005 2.867-1.812 3.66c-.743.731-1.331 1.308-1.331 2.516s.588 1.786 1.331 2.517c.807.794 1.812 1.78 1.812 3.66 0 1.881-1.005 2.867-1.812 3.661-.743.731-1.331 1.308-1.331 2.517 0 1.207.588 1.785 1.331 2.516.807.793 1.812 1.779 1.812 3.659 0 1.881-1.005 2.869-1.811 3.662-.745.731-1.332 1.309-1.332 2.519s.588 1.788 1.332 2.521c.806.794 1.811 1.781 1.811 3.663s-1.005 2.87-1.811 3.663c-.558.55-1.028 1.012-1.229 1.719h4.259c.237-1.373 1.054-2.19 1.737-2.861.744-.734 1.332-1.313 1.332-2.523z"/></g></g></svg>