<svg id="Capa_1" enable-background="new 0 0 512.033 512.033" viewBox="0 0 512.033 512.033" fill="#FFFFFF" xmlns="http://www.w3.org/2000/svg"><g><path d="m511.582 275.237c-1.854-7.862-8.758-12.787-16.791-11.975-16.043 1.621-34.913 3.333-56.14 4.94l29.027-13.758c6.723-3.187 9.6-11.249 6.414-17.972l-9.857-20.796c-3.186-6.723-11.249-9.6-17.972-6.414l-14.926 7.074-9.248-19.511c-2.408-5.081-7.601-7.96-12.896-7.69l5.378-8.606c1.91-3.057 2.515-6.674 1.705-10.186-.811-3.512-2.941-6.498-5.998-8.408l-19.517-12.195c-3.056-1.909-6.67-2.513-10.186-1.705-3.512.811-6.498 2.941-8.407 5.998l-18.853 30.172c-1.167-.941-2.486-1.701-3.94-2.22-3.393-1.21-7.057-1.028-10.314.515l-7.592 3.598 8.535-11.092c4.537-5.896 3.432-14.385-2.464-18.922l-18.24-14.035c-5.896-4.536-14.385-3.431-18.922 2.465l-23.69 30.785-2.774 1.13-29.937-20c-6.188-4.131-14.582-2.461-18.715 3.725l-9.518 14.248-13.359-22.325c-3.819-6.384-12.122-8.47-18.507-4.65l-19.748 11.817c-3.662 2.191-5.901 5.857-6.431 9.79l-14.014-15.17c-5.049-5.465-13.603-5.803-19.067-.755l-16.904 15.616c-5.465 5.048-5.805 13.602-.756 19.067l27.796 30.089-31.475-14.918c-3.256-1.544-6.92-1.728-10.315-.516-3.394 1.211-6.114 3.672-7.657 6.929l-9.248 19.511-14.927-7.075c-6.725-3.185-14.785-.309-17.972 6.414l-9.856 20.795c-1.544 3.257-1.728 6.92-.516 10.315.822 2.305 2.232 4.287 4.064 5.812-6.924-.635-13.483-1.268-19.612-1.887-8.031-.812-14.938 4.113-16.791 11.975-1.854 7.861 2.125 15.35 9.673 18.212 25.25 9.571 51.796 17.599 79.266 24.025l35.164 42.848c6.496 7.915 16.093 12.455 26.333 12.455h21.151c4.142 0 7.5-3.358 7.5-7.5s-3.358-7.5-7.5-7.5h-21.151c-5.73 0-11.102-2.541-14.738-6.97l-23.189-28.255c46.002 9.065 94.23 13.741 143.056 13.741 21.041 0 42.211-.869 62.925-2.583 4.128-.342 7.197-3.965 6.856-8.093s-3.964-7.191-8.093-6.856c-20.304 1.681-41.059 2.533-61.688 2.533-85.125 0-168.314-14.478-240.576-41.87-.297-.113-.383-.208-.384-.208-.128-.211.031-.883.238-1.013.001-.001.122-.048.438-.016 53.946 5.45 139.423 11.946 240.283 11.946s186.336-6.496 240.282-11.946c.315-.032.436.015.438.015.208.13.368.803.24 1.012-.001.001-.087.097-.385.209-44.779 16.974-93.455 28.981-144.675 35.688-4.107.538-7 4.303-6.463 8.41s4.302 7.005 8.41 6.463c15.294-2.002 30.362-4.482 45.184-7.403l-23.165 28.227c-3.636 4.43-9.007 6.97-14.738 6.97h-154.099c-4.142 0-7.5 3.358-7.5 7.5s3.358 7.5 7.5 7.5h154.104c10.239 0 19.837-4.54 26.333-12.455l35.137-42.814c27.475-6.434 53.987-14.467 79.293-24.059 7.548-2.862 11.526-10.35 9.673-18.212zm-60.256-51.775 8.566 18.073-62.039 29.404c-16.379.961-33.74 1.815-51.965 2.497zm-33.58-.776-109.429 51.864c-15.5.341-31.493.542-47.904.573l148.768-70.51zm-33.656-59.426 16.961 10.598-15.986 25.584-18.817 8.918-4.46-9.41zm-39.967 33.441 8.571 18.084-112.236 53.196-23.363-11.073zm-85.59 2.193s-25.584 33.411-25.832 34.018l-33.117 15.697-29.159-13.82zm52.814-44.037 15.85 12.197-25.522 33.166-39.725 18.829zm-74.448 14.884 20.242 13.522-22.366 9.112-8.986-6.003zm-46.61-8.668 23.779 39.737-18.74 7.634-22.201-37.102zm-56.598 4.077 45.912 49.701-19.782 8.059-40.821-44.188zm-35.474 52.014 121.721 57.691c-17.024-.26-33.498-.694-49.353-1.259l-80.934-38.36zm-50.712 36.922 8.565-18.073 75.737 35.896c-19.189-.987-37.183-2.137-53.788-3.36z"/></g><g/><g/><g/><g/><g/><g/><g/><g/><g/><g/><g/><g/><g/><g/><g/></svg>